<svg xmlns="http://www.w3.org/2000/svg" viewBox="0 0 516.3 527.3"><path d="M66.3 112.7c5.5-.1 11-.2 16.5-.2H337.1v67.4h113v264.3c-3.9-4-7.4-7.5-10.9-11.1-15.8-16-31.6-32.1-47.3-48.2-1.8-1.9-3.6-2.5-6.2-2.5-67.2.1-134.5.1-201.7.1h-5.1v-67.3c-1.5-.1-2.7-.2-3.9-.2-14.9 0-29.7-.1-44.6.1-1.9 0-4.1 1-5.5 2.3-18.6 18.4-37 36.9-55.5 55.3-.9.9-2.1 1.7-3.1 2.5V112.7zM89 135.2v185.9c1.3-1.2 2.2-2 3-2.8 7.6-7.6 15.3-15.1 22.7-22.8 2.1-2.2 4.2-3 7.2-3 62.5.1 125 0 187.4 0h4.9V135.2H89zm338.6 67.6h-90.7v112.3H201.5V360h5c62.6 0 125.2 0 187.8-.1 3.3 0 5.6 1 7.8 3.3 5.1 5.5 10.5 10.7 15.7 16.1 3.1 3.1 6.3 6.2 9.8 9.7V202.8z"/><path d="M291.9 202.8v21.9H111.5v-21.9h180.4zM133.9 179.7v-21.9h135.4v21.9H133.9zM133.9 269.8v-22h135.4v22H133.9z"/></svg>