<svg xmlns="http://www.w3.org/2000/svg" viewBox="0 0 512 512" wigth="57" height="57" fill="#d40e14"><path d="M511.546 252.363l-29.999-119.997a14.999 14.999 0 00-7.163-9.416L262.389 2.953a15 15 0 00-14.831.03L37.564 122.98a14.995 14.995 0 00-7.11 9.385L.455 252.362C-1.912 261.831 5.266 271 15.007 271h44.999v224.994c0 8.284 6.716 15 15 15h361.991c8.284 0 15-6.716 15-15V270.999h44.999c9.758.002 16.914-9.185 14.55-18.636zM235.789 405.998l-53.786 53.786V352.211l53.786 53.787zM203.215 331h107.571L257 384.786 203.215 331zm0 149.996l53.786-53.786 53.786 53.786H203.215zm128.784-21.212l-53.786-53.786 53.786-53.786v107.572zm89.998 21.212h-59.998V331h15c8.284 0 15-6.716 15-15s-6.716-15-15-15H137.005c-8.284 0-15 6.716-15 15s6.716 15 15 15h15v149.996h-62V258.01l20.013-73.401 145.029-82.705 146.95 82.751 20 73.355v222.986zm26.457-239.995l-19.164-70.286a15.002 15.002 0 00-7.111-9.125L262.361 71.592a15.002 15.002 0 00-14.791.04L89.752 161.63a15.002 15.002 0 00-7.041 9.084l-19.164 70.287h-29.33l23.787-95.15L255.036 33.263l198.969 112.623 23.778 95.115h-29.329z"/><path d="M316.999 181.004H195.003c-8.284 0-15 6.716-15 15v59.998c0 8.284 6.716 15 15 15H317c8.284 0 15-6.716 15-15v-59.998c-.001-8.285-6.717-15-15.001-15zM302 241.002h-91.998v-29.999H302v29.999z"/></svg>
