<svg viewBox="0 0 512 512" xmlns="http://www.w3.org/2000/svg"><path d="M387.172 152.844H124.828c-5.523 0-10-4.477-10-10v-39c0-5.524 4.477-10 10-10h262.344c5.523 0 10 4.476 10 10v39c0 5.523-4.477 10-10 10zm-252.344-20h242.344v-19H134.828zm0 0M142.512 201.516c-2.633 0-5.211-1.07-7.07-2.93a10.063 10.063 0 01-2.743-9.02c.13-.64.32-1.27.57-1.87.25-.61.56-1.192.922-1.731.368-.55.79-1.059 1.25-1.52 2.32-2.32 5.77-3.39 9.02-2.73.64.12 1.27.32 1.867.57.613.25 1.192.559 1.73.91.551.371 1.06.79 1.52 1.25.461.461.883.97 1.242 1.52.36.539.668 1.12.918 1.73.25.602.442 1.23.57 1.871a9.6 9.6 0 01.204 1.95c0 2.629-1.07 5.21-2.934 7.07a9.31 9.31 0 01-1.52 1.238c-.538.36-1.117.672-1.73.922a9.38 9.38 0 01-1.867.57c-.64.13-1.3.2-1.95.2zm0 0M263.836 245.012H142.508c-5.524 0-10-4.477-10-10 0-5.524 4.476-10 10-10h121.328c5.523 0 10 4.476 10 10 0 5.523-4.48 10-10 10zm0 0"/><path d="M502 0H10C4.477 0 0 4.477 0 10v335.71c0 5.524 4.477 10 10 10h299.816v21.52a9.995 9.995 0 005.047 8.688 10.008 10.008 0 0010.047-.082l29.238-17.32 29.563 17.34a9.96 9.96 0 005.059 1.374 9.98 9.98 0 004.968-1.324 9.992 9.992 0 005.032-8.676v-21.52H502c5.523 0 10-4.476 10-10V10c0-5.523-4.477-10-10-10zM310.36 245.445c0-24.222 19.706-43.93 43.933-43.93 24.223 0 43.93 19.708 43.93 43.93 0 24.227-19.707 43.934-43.93 43.934s-43.934-19.711-43.934-43.934zm88.41 45.883c11.992-11.629 19.453-27.898 19.453-45.883 0-35.25-28.676-63.93-63.93-63.93H185.508c-5.524 0-10 4.477-10 10s4.476 10 10 10h122.379c-10.856 11.462-17.524 26.934-17.524 43.93 0 17.985 7.461 34.254 19.453 45.883v4.383H94.902C91.04 278.359 77.352 264.668 60 260.809V94.902C77.352 91.043 91.04 77.352 94.902 60h322.196c3.859 17.352 17.55 31.043 34.902 34.902V260.81c-17.352 3.863-31.043 17.55-34.902 34.902H398.77zm-39.582 56.953a10.005 10.005 0 00-10.16.02l-19.212 11.383v-55.18a63.521 63.521 0 0024.477 4.871c8.664 0 16.934-1.73 24.477-4.871v55.266zM492 335.711h-93.23v-20h27.234c5.523 0 10-4.477 10-10 0-14.336 11.66-25.996 25.996-25.996 5.523 0 10-4.48 10-10V85.996c0-5.52-4.477-10-10-10-14.336 0-25.996-11.66-25.996-25.996 0-5.523-4.477-10-10-10H85.996c-5.52 0-10 4.477-10 10 0 14.336-11.66 25.996-25.996 25.996-5.523 0-10 4.48-10 10v183.715c0 5.523 4.477 10 10 10 14.336 0 25.996 11.664 25.996 26 0 5.523 4.48 10 10 10h223.82v20H20V20h472zm0 0"/></svg>
