<svg viewBox="0 -36 480 480" xmlns="http://www.w3.org/2000/svg" wigth="68" height="60" fill="#d40e14"><path d="M456 160h-35.406a88.062 88.062 0 00-6.305-16H416V24H208v120h49.71a88.062 88.062 0 00-6.304 16H168V0H56v160H24c-13.254 0-24 10.746-24 24s10.746 24 24 24v168h168V208h56v48.063a24 24 0 10.64 47.937H312v72h-56v32h16v-16h56v16h16v-16h48v16h16v-32h-48v-72h48v72h48V208c13.254 0 24-10.746 24-24s-10.746-24-24-24zm-32 112a8 8 0 010 16zm-160-88c0-39.766 32.234-72 72-72s72 32.234 72 72v72H264zM400 40v83.793A87.687 87.687 0 00336 96c-1.664 0-3.297.16-4.938.246L387.313 40zm-147.313 0L224 68.688V40zM224 128V91.312L275.313 40h89.375l-62.946 62.945A88.397 88.397 0 00268.168 128zM72 16h80v16H72zm0 32h80v80H72zm0 96h80v16H72zm104 216H40V208h136zm16-168H24a8 8 0 010-16h224.406c-.238 2.64-.406 5.297-.406 8v8zm152 184h-16v-72h16zm16-88H248.64a8 8 0 010-16H408v16zm64 72v-56a23.858 23.858 0 0016-6.238V360zm16-97.762A23.858 23.858 0 00424 256v-48h16zM456 192h-32v-8c0-2.703-.168-5.36-.406-8H456a8 8 0 010 16zm0 0"/><path d="M104 64h16v48h-16zm0 0M160 232H56v48h104zm-16 32H72v-16h72zm0 0M160 296H56v48h104zm-16 32H72v-16h72zm0 0"/></svg>
