<svg viewBox="0 -8 512 512" xmlns="http://www.w3.org/2000/svg"><path d="M512 120H0v180h35.219L7.996 327.223l148.496 148.492 21.211-21.215 42.426 42.426 35.875-35.871c20.55 20.547 27.394 27.394 31.719 31.715 8.215-8.207 25.172-25.204 42.363-42.282l25.227 25.227 148.492-148.492L476.585 300H512zM50.426 327.223L77.645 300H94.82c3.125 3.113 7.442 7.414 12.645 12.61l-35.828 35.824zm42.426 42.425l35.843-35.843c6.606 6.597 13.75 13.738 21.223 21.203l-35.852 35.851zm63.64 63.637l-21.215-21.21 35.86-35.86c7.039 7.031 14.16 14.152 21.218 21.207zM220.13 454.5l-21.211-21.215 14.652-14.652c7.434 7.426 14.575 14.566 21.22 21.207zm156.238-169.867l-21.215 21.215 63.801 63.8-21.215 21.211-63.797-63.8-21.214 21.214 63.8 63.801-21.214 21.211-63.797-63.8-21.215 21.214 38.574 38.574c-5.102 5.067-11.117 11.051-21.152 21.07C85.996 248.638 116.234 279.044 107.18 270H30V150h151v150h15c39.078 0 71.258-30.05 74.684-68.254A59.633 59.633 0 00301 240h73.156l87.223 87.223-21.215 21.21c-8.34-8.343-56.434-56.437-63.797-63.8zM482 270h-35.414l-60-60H301c-16.543 0-30-13.457-30-30h-30v45c0 19.555-12.54 36.238-30 42.43V150h271zm0 0M241 0h30v90h-30zm0 0M365.395 19.387l21.214 21.215-60 60-21.214-21.215zm0 0M146.605 19.39l60 60-21.21 21.215-60-60zm0 0"/></svg>