<svg xmlns="http://www.w3.org/2000/svg" viewBox="0 0 474.71 474.71"><path d="M466.66 246.85L393.7 120.27a28.8 28.8 0 00-28.76-28.76H255.97V55.76a30.96 30.96 0 0012.38-24.77c0-17.09-13.9-30.99-31-30.99-17.08 0-30.99 13.9-30.99 31 0 10.1 4.87 19.09 12.37 24.75v35.76H109.76A28.8 28.8 0 0081 120.27L8.05 246.85a6.5 6.5 0 000 6.5l24.25 42a6.5 6.5 0 005.63 3.26h99.13a6.5 6.5 0 005.63-3.25l24.25-42.01a6.5 6.5 0 000-6.5L98.76 128.74h119.97v177.78h-2.9a6.5 6.5 0 00-6.5 6.5v94.73h-87.9a6.5 6.5 0 00-6.5 6.5v20.48h-7.1a6.5 6.5 0 00-6.5 6.5v26.98a6.5 6.5 0 006.5 6.5h259.05a6.5 6.5 0 006.5-6.5v-26.98a6.5 6.5 0 00-6.5-6.5h-7.1v-20.48a6.5 6.5 0 00-6.5-6.5h-87.91v-94.73a6.5 6.5 0 00-6.5-6.5h-2.9V128.73h119.98l-68.19 118.1a6.5 6.5 0 000 6.5l24.26 42.02a6.5 6.5 0 005.63 3.25h99.12a6.5 6.5 0 005.63-3.25l24.26-42.01a6.5 6.5 0 000-6.5zM237.36 13c9.91 0 17.99 8.07 17.99 18 0 9.91-8.07 17.98-18 17.98-9.92 0-17.99-8.07-17.99-17.99 0-9.92 8.07-17.99 18-17.99zm-5.63 48.47a30.98 30.98 0 0011.24 0V91.5h-11.24V61.46zM109.76 104.5h255.2c7.1 0 13.14 4.74 15.09 11.23H94.66a15.79 15.79 0 0115.1-11.23zM80.47 256.6l-11.4 29h-8.1l11.39-29h8.11zm-55.53 0h33.45l-11.4 29h-5.3l-16.75-29zm108.37 29H83.04l11.4-29h55.62l-16.75 29zm-108.37-42L87.5 135.24l62.56 108.36H24.94zm102.98 177.15h157.35l-5.49 13.98H127.92v-13.98zm165.83 13.98l5.49-13.98h5.7l-5.5 13.98h-5.7zm-179.42 13h43.85l-5.49 13.98h-38.36v-13.98zm246.05 13.98H166.66l5.49-13.98h188.23v13.98zm-13.6-26.98h-33.37l5.49-13.98h27.88v13.98zm-124.44-26.98v-88.23h30.03v88.23h-30.03zm20.63-101.24h-11.24V128.74h11.24v177.77zM387.2 135.24l62.56 108.36H324.65l62.56-108.36zM324.65 256.6h85.43l-11.4 29H341.4l-16.75-29zm108.37 29h-20.37l11.4-29h25.72l-16.75 29z"/><path d="M237.36 37.5a6.53 6.53 0 006.5-6.5 6.53 6.53 0 00-11.1-4.6 6.55 6.55 0 000 9.2 6.55 6.55 0 004.6 1.9z"/></svg>