<svg xmlns="http://www.w3.org/2000/svg" viewBox="0 0 66.5 66.5"><path d="M61.6 28.3L33.3 9.8l-7.1 4.6v-6h-7.1V19L4.9 28.3l6.7 9.6.4-.4v20.6h42.5V37.5l.4.4 6.7-9.6zm-51.8 1L33.2 14l23.4 15.3-2.5 3.5-20.8-13.7-21 13.8-2.5-3.6zM51 54.5H15.5V35.4l17.7-11.7L51 35.4v19.1z"/><path d="M32.4 48.4v2c0 .1 0 0-.1 0H28c-.1 0-.1 0-.1-.1v-.5-.8-.4V48.3H24.8v-.1-.5-1.8-.4-.2-.3h3v-.2-.2-.9-.4-.2H24.8V43v-.2-.5-.9-.9-.4V39.8c0-.1 0 0 .1-.1H27.9v-.1-.5-1.8-3.5V32v-.4-.4h7.8c1.1.1 2.1.3 3.1.8.7.4 1.3.9 1.8 1.6.4.7.7 1.5.8 2.4.2 2-.4 4-1.9 5.3-.6.6-1.4 1-2.2 1.3-1.1.4-2.2.4-3.3.4h-1.7v1.8h7.5c.1 0 0 0 .1.1V48c0 .1 0 .1-.1.1h-3c-1.4.3-2.9.3-4.4.3zm.1-13.7V40c.9-.1 1.9 0 2.8-.2.6-.2 1.2-.5 1.5-1.1.2-.3.2-.7.3-1.1 0-.4 0-.8-.1-1.2-.2-.7-.7-1.1-1.4-1.4-1-.4-2.1-.3-3.1-.3z"/></svg>