<svg xmlns="http://www.w3.org/2000/svg" viewBox="0 0 474.9 474.9" width="82" height="84" fill="#d40e14"><path d="M382.654 128.5c24 0 43.5-19.5 43.5-43.5s-19.5-43.5-43.5-43.5-43.5 19.5-43.5 43.5 19.5 43.5 43.5 43.5zm0-72c15.7 0 28.5 12.8 28.5 28.5s-12.8 28.5-28.5 28.5-28.5-12.8-28.5-28.5 12.8-28.5 28.5-28.5zM267.354 134.9l-61.7 55.8-6.9-7.7c-2.8-3.1-7.5-3.3-10.6-.5-3.1 2.8-3.3 7.5-.5 10.6l6.9 7.7-9.6 8.7-6.9-7.7c-2.8-3.1-7.5-3.3-10.6-.5-3.1 2.8-3.3 7.5-.5 10.6l6.9 7.7-29 26.1c-3.1 2.8-3.3 7.5-.5 10.6s7.5 3.3 10.6.5l29-26.1 31.9 35.3c2.8 3.1 7.5 3.3 10.6.5 3.1-2.8 3.3-7.5.5-10.6l-31.9-35.3 9.6-8.7 16.8 18.6c18.6 20.5 51.1 21.5 72.6 2.1s24.1-51.4 6-72.8l-.2-.2-21.9-24.2c-2.8-3.1-7.5-3.3-10.6-.5zm21.3 34.7c12.8 15.2 10.7 37.9-4.7 51.8-15.3 13.8-38.4 13.4-51.4-1l-16.8-18.6 56.2-50.7 16.7 18.5z"/><path d="M459.954 0h-186.4c-1.8 0-3.5.6-4.9 1.8l-258.6 222.6c-1.6 1.3-2.5 3.3-2.6 5.4s.7 4.1 2.2 5.6l186.4 183.1c1.5 1.4 3.4 2.1 5.3 2.1 1.7 0 3.5-.6 4.9-1.7l258.6-221.9c1.6-1.4 2.6-3.5 2.6-5.7V7.5c0-4.1-3.4-7.5-7.5-7.5zm-7.4 187.8l-250.8 215.1-175.7-172.5 250.4-215.5h176.1v172.9z"/><path d="M455.054 239.9l-253.3 217.3-181.5-181.3c-2.9-2.9-7.7-2.9-10.6 0-2.9 2.9-2.9 7.7 0 10.6l186.4 186.2c1.5 1.5 3.4 2.2 5.3 2.2 1.7 0 3.5-.6 4.9-1.7l258.6-221.9c3.1-2.7 3.5-7.5.8-10.6s-7.5-3.5-10.6-.8z"/></svg>
