<svg xmlns="http://www.w3.org/2000/svg" viewBox="0 0 516.3 527.3"><path d="M516.3 459.3V96.7h-67.4l38.8-38.1L429.1 0l-97.6 96.7H47v110.2L0 253.6l47 46.9V438h137.9l89.4 89.2 76-75.8-13.5-13.4H431l.1 64h42.6c23.5 0 42.6-19.1 42.6-42.7zM255.1 210.1l19.8 19.8-29.7 9.9 9.9-29.7zm10.4-19.8L383.5 73l28.8 28.8-117.6 117.7-29.2-29.2zm191-132.7l-29.2 29.2L398.6 58l29.3-29 28.6 28.6zM68.3 416.7v-95l95.2 95H68.3zM274 497.6l-244-244 45.9-45.9 29.1 29.1-22.9 22.9 15.1 15.1 22.9-22.9 27.6 27.6-22.9 22.9 15.1 15.1 22.9-22.9 27.6 27.6-22.9 22.9 15.1 15.1 22.9-22.9 27.6 27.6-22.9 22.9 15.1 15.1 22.9-22.9 27.6 27.6-22.9 22.9 15.1 15.1 22.9-22.9 29.1 29.1-46 45.8zm41.5-80.9L76.2 177.8l-7.9 7.8V118h241.6l-69.6 69-22.7 69.7 10.7 10.7h160V246H294l4-1.3L427.2 118h68.2l-.4 304.4c-6.3-3.6-13.6-5.7-21.4-5.7H315.5zm158.2 64h-21.3V438h21.3c11.8 0 21.3 9.6 21.3 21.3 0 11.8-9.6 21.4-21.3 21.4z"/><path d="M409.7 246H431v21.3h-21.3zM452.3 246h21.3v21.3h-21.3z"/></svg>